{
  "asset": {
    "version": "2.0",
    "generator": "THREE.GLTFExporter"
  },
  "scenes": [
    {
      "nodes": [
        0
      ]
    }
  ],
  "scene": 0,
  "nodes": [
    {
      "children": [
        4
      ],
      "matrix": [
        0.01,
        0,
        0,
        0,
        0,
        0.01,
        0,
        0,
        0,
        0,
        0.01,
        0,
        0,
        0,
        0,
        1
      ]
    },
    {
      "matrix": [
        18.705346418755813,
        0,
        0,
        0,
        0,
        -18.705346418755784,
        -8.306842511076955e-15,
        0,
        0,
        8.306842511076955e-15,
        -18.705346418755784,
        0,
        -18.04898549507038,
        101.55254308796549,
        -2500.6086039854017,
        0.9999999999999999
      ],
      "name": "obj",
      "mesh": 0
    },
    {
      "matrix": [
        1,
        0,
        0,
        0,
        0,
        1,
        -6.123233995736764e-17,
        0,
        0,
        6.123233995736764e-17,
        1,
        0,
        0,
        1.8010794402412344e-13,
        440.1259432698735,
        1
      ],
      "name": "Personal Camera",
      "camera": 0
    },
    {
      "matrix": [
        1,
        0,
        0,
        0,
        0,
        1,
        0,
        0,
        0,
        0,
        1,
        0,
        0,
        1,
        0,
        1
      ],
      "name": "Default Ambient Light"
    },
    {
      "name": "Scene 1",
      "children": [
        1,
        2,
        3
      ]
    }
  ],
  "bufferViews": [
    {
      "buffer": 0,
      "byteOffset": 0,
      "byteLength": 128976,
      "target": 34962,
      "byteStride": 12
    },
    {
      "buffer": 0,
      "byteOffset": 128976,
      "byteLength": 128976,
      "target": 34962,
      "byteStride": 12
    },
    {
      "buffer": 0,
      "byteOffset": 257952,
      "byteLength": 85984,
      "target": 34962,
      "byteStride": 8
    },
    {
      "buffer": 0,
      "byteOffset": 343936,
      "byteLength": 258048,
      "target": 34963
    }
  ],
  "buffers": [
    {
      "byteLength": 601984,
      "uri": "data:application/octet-stream;base64,"
    }
  ],
  "accessors": [
    {
      "bufferView": 0,
      "componentType": 5126,
      "count": 10748,
      "max": [
        0.9999749064445496,
        0.9999749064445496,
        1
      ],
      "min": [
        -0.9999749064445496,
        -0.9999749064445496,
        -1
      ],
      "type": "VEC3"
    },
    {
      "bufferView": 1,
      "componentType": 5126,
      "count": 10748,
      "max": [
        56.58799362182617,
        56.58799362182617,
        222.15501403808594
      ],
      "min": [
        -56.58799362182617,
        -56.58799362182617,
        -222.15501403808594
      ],
      "type": "VEC3"
    },
    {
      "bufferView": 2,
      "componentType": 5126,
      "count": 10748,
      "max": [
        1.2775195837020874,
        2.9384806156158447
      ],
      "min": [
        -0.28751951456069946,
        -1.9384806156158447
      ],
      "type": "VEC2"
    },
    {
      "bufferView": 3,
      "componentType": 5125,
      "count": 64512,
      "max": [
        10747
      ],
      "min": [
        0
      ],
      "type": "SCALAR"
    }
  ],
  "meshes": [
    {
      "primitives": [
        {
          "mode": 4,
          "attributes": {
            "NORMAL": 0,
            "POSITION": 1,
            "TEXCOORD_0": 2
          },
          "extras": {
            "parameters": {
              "width": 113.17598724365234,
              "height": 113.17598724365234,
              "depth": 444.3100400313453,
              "subdivisions": 0
            },
            "type": "NonParametricGeometry"
          },
          "indices": 3
        }
      ]
    }
  ],
  "cameras": [
    {
      "type": "perspective",
      "perspective": {
        "aspectRatio": 2.2504118616144977,
        "yfov": 0.7853981633974483,
        "zfar": 100000,
        "znear": 70
      },
      "name": "Camera"
    }
  ]
}